SplineFontDB: 3.0
FontName: Jones-it-BlackItalic
FullName: Jones* Black Italic
FamilyName: Jones* Black
Weight: Black
Copyright: 
UComments: "2016-1-29: Created with FontForge (http://fontforge.org)"
Version: 002.000
ItalicAngle: -10
UnderlinePosition: -150
UnderlineWidth: 100
Ascent: 784
Descent: 216
InvalidEm: 0
LayerCount: 2
Layer: 0 0 "Back" 1
Layer: 1 0 "Fore" 0
XUID: [1021 31 -699969567 4970488]
FSType: 0
OS2Version: 2
OS2_WeightWidthSlopeOnly: 0
OS2_UseTypoMetrics: 0
CreationTime: 1454127431
ModificationTime: 1454902776
PfmFamily: 17
TTFWeight: 900
TTFWidth: 5
LineGap: 0
VLineGap: 0
OS2TypoAscent: 784
OS2TypoAOffset: 0
OS2TypoDescent: -216
OS2TypoDOffset: 0
OS2TypoLinegap: 200
OS2WinAscent: 850
OS2WinAOffset: 0
OS2WinDescent: 300
OS2WinDOffset: 0
HheadAscent: 850
HheadAOffset: 0
HheadDescent: -300
HheadDOffset: 0
OS2SubXSize: 650
OS2SubYSize: 600
OS2SubXOff: 0
OS2SubYOff: 75
OS2SupXSize: 650
OS2SupYSize: 600
OS2SupXOff: 0
OS2SupYOff: 350
OS2StrikeYSize: 50
OS2StrikeYPos: 314
OS2CapHeight: 700
OS2XHeight: 520
OS2Vendor: 'PfEd'
Lookup: 5 0 0 "lig" { "lig-1"  } ['calt' ('DFLT' <'dflt' > 'grek' <'dflt' > 'latn' <'dflt' > ) ]
Lookup: 1 0 0 "fi" { "fi-1"  } ['ss01' ('DFLT' <'dflt' > 'grek' <'dflt' > 'latn' <'dflt' > ) ]
Lookup: 258 0 0 "kern" { "kerning" [150,0,2] } ['kern' ('DFLT' <'dflt' > 'grek' <'dflt' > 'latn' <'dflt' > ) ]
MarkAttachClasses: 1
DEI: 91125
KernClass2: 13 10 "kerning"
 3 A L
 5 D O Q
 3 F P
 3 K X
 3 V W
 13 b e h m n o p
 15 a c g q r s u z
 14 d f i j l t fi
 3 k x
 3 v w
 3 R B
 3 T Y
 1 A
 7 C G O Q
 3 T Y
 3 V W
 15 a m n p r s u z
 11 c d e g o q
 18 b f h i j k l t fi
 5 v w y
 1 x

StartChar: E
Encoding: 69 69 0
Width: 670
VWidth: 0
Flags: HMW
AnchorPoint: "ced" 495 0 basechar 0
AnchorPoint: "dot" 499.009 760 basechar 0
LayerCount: 2
Fore
SplineSet
176.349609375 433 m 1
 636.349609375 433 l 1
 609.900390625 283 l 1
 149.900390625 283 l 1
 176.349609375 433 l 1
223.428710938 700 m 1
 733.428710938 700 l 1
 706.979492188 550 l 1
 196.979492188 550 l 1
 223.428710938 700 l 1
128.211914062 160 m 5
 638.211914062 160 l 5
 610 0 l 1
 100 0 l 1
 128.211914062 160 l 5
223.428710938 700 m 1
 393.428710938 700 l 1
 270 0 l 1
 100 0 l 1
 223.428710938 700 l 1
EndSplineSet
EndChar

StartChar: I
Encoding: 73 73 1
Width: 300
VWidth: 0
Flags: HMW
AnchorPoint: "ced" 145 0 basechar 0
AnchorPoint: "dot" 274.009 760 basechar 0
LayerCount: 2
Fore
SplineSet
188.428710938 700 m 5
 358.428710938 700 l 1
 235 0 l 1
 65 0 l 5
 188.428710938 700 l 5
EndSplineSet
EndChar

StartChar: F
Encoding: 70 70 2
Width: 665
VWidth: 0
Flags: HMW
AnchorPoint: "ced" 145 0 basechar 0
AnchorPoint: "dot" 499.009 760 basechar 0
LayerCount: 2
Fore
SplineSet
172.823242188 413 m 1
 632.823242188 413 l 1
 606.374023438 263 l 5
 146.374023438 263 l 5
 172.823242188 413 l 1
223.428710938 700 m 1
 733.428710938 700 l 1
 706.979492188 550 l 1
 196.979492188 550 l 1
 223.428710938 700 l 1
223.428710938 700 m 1
 393.428710938 700 l 1
 270 0 l 1
 100 0 l 1
 223.428710938 700 l 1
EndSplineSet
EndChar

StartChar: H
Encoding: 72 72 3
Width: 765
VWidth: 0
Flags: HMW
AnchorPoint: "ced" 605 0 basechar 0
AnchorPoint: "dot" 514.009 760 basechar 0
LayerCount: 2
Fore
SplineSet
638.428710938 700 m 1
 808.428710938 700 l 1
 685 0 l 1
 515 0 l 1
 638.428710938 700 l 1
156.349609375 433 m 5
 706.349609375 433 l 1
 679.900390625 283 l 1
 129.900390625 283 l 5
 156.349609375 433 l 5
203.428710938 700 m 5
 373.428710938 700 l 5
 250 0 l 5
 80 0 l 5
 203.428710938 700 l 5
EndSplineSet
EndChar

StartChar: L
Encoding: 76 76 4
Width: 655
VWidth: 0
Flags: HMW
AnchorPoint: "ced" 365 0 basechar 0
AnchorPoint: "dot" 519.009 760 basechar 0
LayerCount: 2
Fore
SplineSet
126.44921875 150 m 5
 636.44921875 150 l 5
 610 0 l 1
 100 0 l 1
 126.44921875 150 l 5
223.428710938 700 m 1
 393.428710938 700 l 1
 270 0 l 1
 100 0 l 1
 223.428710938 700 l 1
EndSplineSet
EndChar

StartChar: T
Encoding: 84 84 5
Width: 690
VWidth: 0
Flags: HMW
AnchorPoint: "ced" 347 0 basechar 0
AnchorPoint: "dot" 479.009 760 basechar 0
LayerCount: 2
Fore
SplineSet
173.428710938 700 m 1
 763.428710938 700 l 1
 736.979492188 550 l 1
 146.979492188 550 l 1
 173.428710938 700 l 1
383.428710938 700 m 5
 553.428710938 700 l 5
 430 0 l 5
 260 0 l 5
 383.428710938 700 l 5
EndSplineSet
EndChar

StartChar: O
Encoding: 79 79 7
Width: 850
VWidth: 0
Flags: HMW
AnchorPoint: "ced" 425 0 basechar 0
AnchorPoint: "dot" 559.009 760 basechar 0
LayerCount: 2
Fore
SplineSet
301.71484375 350 m 4
 279.497070312 224 346.685546875 140 449.685546875 140 c 4
 552.685546875 140 649.497070312 224 671.71484375 350 c 4
 693.931640625 476 626.743164062 560 523.743164062 560 c 4
 420.743164062 560 323.931640625 476 301.71484375 350 c 4
131.71484375 350 m 4
 166.803710938 549 355.192382812 710 550.192382812 710 c 4
 745.192382812 710 876.803710938 549 841.71484375 350 c 4
 806.625 151 618.236328125 -10 423.236328125 -10 c 4
 228.236328125 -10 96.625 151 131.71484375 350 c 4
EndSplineSet
EndChar

StartChar: C
Encoding: 67 67 8
Width: 732
VWidth: 0
Flags: HMW
AnchorPoint: "ced" 425 0 basechar 0
AnchorPoint: "dot" 559.009 760 basechar 0
LayerCount: 2
Fore
SplineSet
301.71484375 350 m 0
 281.260742188 234 343.685546875 140 449.685546875 140 c 0
 523.685546875 140 584.328125 172 637.202148438 228 c 1
 711.924804688 113 l 1
 633.700195312 38 529.236328125 -10 423.236328125 -10 c 0
 228.236328125 -10 96.625 151 131.71484375 350 c 0
 166.803710938 549 355.192382812 710 550.192382812 710 c 0
 656.192382812 710 743.728515625 662 795.50390625 587 c 1
 680.2265625 472 l 1
 647.100585938 528 596.743164062 560 523.743164062 560 c 0
 417.743164062 560 322.16796875 466 301.71484375 350 c 0
EndSplineSet
EndChar

StartChar: A
Encoding: 65 65 9
Width: 800
VWidth: 0
Flags: HMW
AnchorPoint: "ced" 687 0 basechar 0
AnchorPoint: "ring" 523.429 700 basechar 0
AnchorPoint: "dot" 534.009 760 basechar 0
LayerCount: 2
Fore
SplineSet
443.428710938 700 m 5
 603.428710938 700 l 5
 601.666015625 690 l 5
 441.666015625 690 l 5
 443.428710938 700 l 5
231.608398438 270 m 5
 643.608398438 270 l 5
 618.041015625 125 l 5
 206.041015625 125 l 5
 231.608398438 270 l 5
600 0 m 5
 461.666015625 690 l 5
 603.428710938 700 l 5
 780 0 l 5
 600 0 l 5
443.428710938 700 m 5
 581.666015625 690 l 5
 200 0 l 5
 20 0 l 5
 443.428710938 700 l 5
EndSplineSet
EndChar

StartChar: V
Encoding: 86 86 10
Width: 780
VWidth: 0
Flags: HMW
AnchorPoint: "ced" 390 0 basechar 0
AnchorPoint: "dot" 523.009 760 basechar 0
LayerCount: 2
Fore
SplineSet
470 0 m 1
 310 0 l 1
 315.290039062 30 l 5
 475.290039062 30 l 5
 470 0 l 1
313.428710938 700 m 1
 455.290039062 30 l 1
 310 0 l 1
 133.428710938 700 l 1
 313.428710938 700 l 1
470 0 m 1
 335.290039062 30 l 1
 713.428710938 700 l 1
 893.428710938 700 l 1
 470 0 l 1
EndSplineSet
EndChar

StartChar: G
Encoding: 71 71 11
Width: 782
VWidth: 0
Flags: HMW
AnchorPoint: "ced" 425 0 basechar 0
AnchorPoint: "dot" 559.009 760 basechar 0
LayerCount: 2
Fore
SplineSet
782.53125 400 m 5
 757.844726562 260 l 5
 480.844726562 260 l 5
 505.53125 400 l 5
 782.53125 400 l 5
731.924804688 113 m 5
 572.924804688 113 l 5
 618.241210938 370 l 5
 777.241210938 370 l 5
 731.924804688 113 l 5
301.71484375 350 m 0
 280.37890625 229 340.44921875 150 451.44921875 150 c 0
 529.44921875 150 579.328125 172 643.083984375 233 c 5
 731.924804688 113 l 5
 653.700195312 38 529.236328125 -10 423.236328125 -10 c 0
 228.236328125 -10 96.625 151 131.71484375 350 c 0
 166.803710938 549 355.192382812 710 550.192382812 710 c 0
 656.192382812 710 743.728515625 662 795.50390625 587 c 1
 671.989257812 482 l 1
 633.864257812 538 601.743164062 560 523.743164062 560 c 0
 412.743164062 560 323.049804688 471 301.71484375 350 c 0
EndSplineSet
EndChar

StartChar: D
Encoding: 68 68 12
Width: 810
VWidth: 0
Flags: HMW
AnchorPoint: "ced" 325 0 basechar 0
AnchorPoint: "dot" 479.009 760 basechar 0
LayerCount: 2
Fore
SplineSet
223.428710938 700 m 1
 503.428710938 700 l 1
 476.979492188 550 l 1
 196.979492188 550 l 1
 223.428710938 700 l 1
126.44921875 150 m 1
 406.44921875 150 l 1
 380 0 l 1
 100 0 l 1
 126.44921875 150 l 1
223.428710938 700 m 1
 393.428710938 700 l 1
 270 0 l 1
 100 0 l 1
 223.428710938 700 l 1
406.44921875 150 m 5
 517.44921875 150 610.37890625 229 631.71484375 350 c 4
 653.049804688 471 587.979492188 550 476.979492188 550 c 5
 503.428710938 700 l 1
 698.428710938 700 836.803710938 549 801.71484375 350 c 0
 766.625 151 575 0 380 0 c 1
 406.44921875 150 l 5
EndSplineSet
EndChar

StartChar: U
Encoding: 85 85 13
Width: 760
VWidth: 0
Flags: HMW
AnchorPoint: "ced" 380 0 basechar 0
AnchorPoint: "dot" 514.009 760 basechar 0
LayerCount: 2
Fore
SplineSet
577.8984375 300 m 1
 648.428710938 700 l 1
 813.428710938 700 l 1
 739.37109375 280 l 1
 577.8984375 300 l 1
119.37109375 280 m 1
 193.428710938 700 l 1
 358.428710938 700 l 1
 287.8984375 300 l 1
 119.37109375 280 l 1
577.8984375 300 m 1
 739.37109375 280 l 1
 709.572265625 111 557.236328125 -10 378.236328125 -10 c 0
 199.236328125 -10 89.572265625 111 119.37109375 280 c 1
 287.8984375 300 l 1
 272.205078125 211 320.331054688 155 407.331054688 155 c 4
 494.331054688 155 562.205078125 211 577.8984375 300 c 1
EndSplineSet
EndChar

StartChar: o
Encoding: 111 111 14
Width: 650
VWidth: 0
Flags: HMW
AnchorPoint: "ced" 325 0 basechar 0
AnchorPoint: "dot" 443.668 673 basechar 0
LayerCount: 2
Fore
SplineSet
265.844726562 260 m 0
 253.501953125 190 289.803710938 135 348.803710938 135 c 0
 407.803710938 135 463.501953125 190 475.844726562 260 c 0
 488.1875 330 451.885742188 385 392.885742188 385 c 0
 333.885742188 385 278.1875 330 265.844726562 260 c 0
100.844726562 260 m 0
 127.118164062 409 269.453125 530 418.453125 530 c 0
 567.453125 530 667.118164062 409 640.844726562 260 c 0
 614.572265625 111 472.236328125 -10 323.236328125 -10 c 0
 174.236328125 -10 74.572265625 111 100.844726562 260 c 0
EndSplineSet
EndChar

StartChar: B
Encoding: 66 66 15
Width: 695
VWidth: 0
Flags: HMW
AnchorPoint: "ced" 307 0 basechar 0
AnchorPoint: "dot" 422.009 760 basechar 0
LayerCount: 2
Fore
SplineSet
394.5859375 423 m 1
 477.5859375 423 505.759765625 441 513.6953125 486 c 0
 521.629882812 531 499.979492188 550 416.979492188 550 c 1
 463.428710938 700 l 1
 592.428710938 700 707.8515625 623 684.223632812 489 c 0
 660.772460938 356 524.54296875 315 395.54296875 315 c 1
 394.5859375 423 l 1
203.428710938 700 m 1
 373.428710938 700 l 1
 250 0 l 1
 80 0 l 1
 203.428710938 700 l 1
103.803710938 135 m 1
 383.803710938 135 l 1
 380 0 l 1
 80 0 l 1
 103.803710938 135 l 1
203.428710938 700 m 1
 463.428710938 700 l 1
 416.979492188 550 l 1
 176.979492188 550 l 1
 203.428710938 700 l 1
154.5859375 423 m 1
 474.5859375 423 l 1
 411.6640625 293 l 1
 131.6640625 293 l 1
 154.5859375 423 l 1
383.803710938 135 m 1
 466.803710938 135 503.741210938 163 512.557617188 213 c 4
 521.374023438 263 494.6640625 293 411.6640625 293 c 1
 450.53125 400 l 1
 579.53125 400 705.65625 344 681.147460938 205 c 0
 656.637695312 66 519 0 380 0 c 1
 383.803710938 135 l 1
EndSplineSet
EndChar

StartChar: K
Encoding: 75 75 16
Width: 745
VWidth: 0
Flags: HMW
AnchorPoint: "ced" 655 0 basechar 0
AnchorPoint: "dot" 469.009 760 basechar 0
LayerCount: 2
Fore
SplineSet
322.823242188 413 m 5
 506.823242188 413 l 5
 740 0 l 1
 556 0 l 1
 322.823242188 413 l 5
628.428710938 700 m 1
 813.428710938 700 l 1
 286.5 207 l 1
 125.555664062 230 l 1
 628.428710938 700 l 1
203.428710938 700 m 1
 373.428710938 700 l 1
 250 0 l 1
 80 0 l 1
 203.428710938 700 l 1
EndSplineSet
EndChar

StartChar: R
Encoding: 82 82 17
Width: 718
VWidth: 0
Flags: HMW
AnchorPoint: "ced" 595 0 basechar 0
AnchorPoint: "dot" 479.009 760 basechar 0
LayerCount: 2
Fore
SplineSet
430.76953125 373 m 1
 498.76953125 373 545.293945312 410 554.9921875 465 c 0
 564.690429688 520 529.979492188 550 461.979492188 550 c 1
 508.428710938 700 l 1
 657.428710938 700 748.795898438 600 724.9921875 465 c 0
 701.364257812 331 573.321289062 223 424.321289062 223 c 1
 430.76953125 373 l 1
218.428710938 700 m 1
 388.428710938 700 l 1
 265 0 l 1
 95 0 l 1
 218.428710938 700 l 1
253.428710938 700 m 1
 508.428710938 700 l 1
 461.979492188 550 l 1
 226.979492188 550 l 1
 253.428710938 700 l 1
195.76953125 373 m 1
 430.76953125 373 l 1
 424.321289062 223 l 1
 169.321289062 223 l 1
 195.76953125 373 l 1
319.424804688 320 m 5
 504.424804688 320 l 1
 688 0 l 1
 503 0 l 5
 319.424804688 320 l 5
EndSplineSet
EndChar

StartChar: P
Encoding: 80 80 18
Width: 643
VWidth: 0
Flags: HMW
AnchorPoint: "ced" 145 0 basechar 0
AnchorPoint: "dot" 449.009 760 basechar 0
LayerCount: 2
Fore
SplineSet
400.76953125 373 m 1
 468.76953125 373 515.118164062 409 524.815429688 464 c 4
 534.513671875 519 499.979492188 550 431.979492188 550 c 1
 478.428710938 700 l 1
 627.428710938 700 718.620117188 599 694.815429688 464 c 0
 671.1875 330 543.321289062 223 394.321289062 223 c 1
 400.76953125 373 l 1
208.428710938 700 m 1
 378.428710938 700 l 1
 255 0 l 1
 85 0 l 1
 208.428710938 700 l 1
223.428710938 700 m 1
 478.428710938 700 l 1
 431.979492188 550 l 1
 196.979492188 550 l 1
 223.428710938 700 l 1
165.76953125 373 m 1
 400.76953125 373 l 1
 394.321289062 223 l 1
 139.321289062 223 l 1
 165.76953125 373 l 1
EndSplineSet
EndChar

StartChar: Q
Encoding: 81 81 19
Width: 849
VWidth: 0
Flags: HMW
AnchorPoint: "ced" 425 0 basechar 0
AnchorPoint: "dot" 559.009 760 basechar 0
LayerCount: 2
Fore
SplineSet
301.71484375 350 m 0
 279.497070312 224 346.685546875 140 449.685546875 140 c 0
 552.685546875 140 649.497070312 224 671.71484375 350 c 0
 693.931640625 476 626.743164062 560 523.743164062 560 c 0
 420.743164062 560 323.931640625 476 301.71484375 350 c 0
695.478515625 -54 m 5
 450.0234375 244 l 1
 588.830078125 362 l 1
 834.4609375 65 l 5
 695.478515625 -54 l 5
131.71484375 350 m 0
 166.803710938 549 355.192382812 710 550.192382812 710 c 0
 745.192382812 710 876.803710938 549 841.71484375 350 c 0
 806.625 151 618.236328125 -10 423.236328125 -10 c 0
 228.236328125 -10 96.625 151 131.71484375 350 c 0
EndSplineSet
EndChar

StartChar: J
Encoding: 74 74 20
Width: 599
VWidth: 0
Flags: HMW
AnchorPoint: "ced" 255 0 basechar 0
AnchorPoint: "dot" 379.009 760 basechar 0
LayerCount: 2
Fore
SplineSet
399.844726562 260 m 1
 477.428710938 700 l 1
 642.428710938 700 l 1
 564.844726562 260 l 1
 399.844726562 260 l 1
399.844726562 260 m 1
 564.844726562 260 l 1
 531.51953125 71 412.236328125 -10 253.236328125 -10 c 0
 145.236328125 -10 69.2294921875 41 37.68359375 157 c 1
 172.200195312 245 l 1
 189.5625 179 229.803710938 135 278.803710938 135 c 0
 345.803710938 135 384.15234375 171 399.844726562 260 c 1
EndSplineSet
EndChar

StartChar: S
Encoding: 83 83 21
Width: 625
VWidth: 0
Flags: HMW
AnchorPoint: "ced" 315 0 basechar 0
AnchorPoint: "dot" 469.009 760 basechar 0
LayerCount: 2
Fore
SplineSet
446.67578125 208 m 1
 609.383789062 195 l 1
 586.637695312 66 475.236328125 -10 326.236328125 -10 c 0
 197.236328125 -10 103.637695312 66 51.6884765625 123 c 1
 168.37890625 229 l 5
 216.857421875 175 258.803710938 135 341.803710938 135 c 0
 404.803710938 135 439.623046875 168 446.67578125 208 c 1
334.75 509 m 1
 169.75 509 l 1
 193.73046875 645 321.192382812 710 440.192382812 710 c 0
 539.192382812 710 614.844726562 674 657.67578125 622 c 1
 544.279296875 512 l 1
 507.038085938 556 477.625 565 424.625 565 c 0
 376.625 565 341.274414062 546 334.75 509 c 1
407.583984375 440 m 0
 530.016601562 417.9140625 637.94921875 357 609.383789062 195 c 1
 446.67578125 208 l 1
 453.905273438 249 427.608398438 283.721679688 351.8984375 300 c 0
 243.696289062 323.264648438 145.59375 372 169.75 509 c 1
 334.75 509 l 1
 328.579101562 474 341.642578125 451.895507812 407.583984375 440 c 0
EndSplineSet
EndChar

StartChar: M
Encoding: 77 77 22
Width: 932
VWidth: 0
Flags: HMW
AnchorPoint: "ced" 770 0 basechar 0
AnchorPoint: "dot" 604.009 760 basechar 0
LayerCount: 2
Fore
SplineSet
522.922851562 130 m 1
 454.922851562 130 l 1
 496.661132812 310 l 5
 544.661132812 310 l 5
 522.922851562 130 l 1
794.849609375 640 m 1
 815.428710938 700 l 1
 975.428710938 700 l 1
 971.90234375 680 l 1
 794.849609375 640 l 1
951.612304688 650 m 1
 522.922851562 130 l 1
 496.661132812 310 l 5
 815.428710938 700 l 1
 951.612304688 650 l 1
971.90234375 680 m 1
 852 0 l 1
 682 0 l 1
 794.849609375 640 l 1
 971.90234375 680 l 1
362.849609375 640 m 1
 199.90234375 680 l 1
 203.428710938 700 l 1
 363.428710938 700 l 1
 362.849609375 640 l 1
209.612304688 650 m 1
 363.428710938 700 l 1
 544.661132812 310 l 5
 454.922851562 130 l 1
 209.612304688 650 l 1
199.90234375 680 m 1
 362.849609375 640 l 1
 250 0 l 1
 80 0 l 1
 199.90234375 680 l 1
EndSplineSet
EndChar

StartChar: Y
Encoding: 89 89 23
Width: 780
VWidth: 0
Flags: HMW
AnchorPoint: "ced" 395 0 basechar 0
AnchorPoint: "dot" 521.009 760 basechar 0
LayerCount: 2
Fore
SplineSet
357.016601562 295 m 1
 527.016601562 295 l 1
 475 0 l 1
 305 0 l 1
 357.016601562 295 l 1
183.428710938 700 m 1
 363.428710938 700 l 5
 527.016601562 295 l 1
 383.262695312 217 l 1
 183.428710938 700 l 1
663.428710938 700 m 1
 843.428710938 700 l 1
 473.262695312 217 l 1
 357.016601562 295 l 1
 663.428710938 700 l 1
EndSplineSet
EndChar

StartChar: W
Encoding: 87 87 24
Width: 1065
VWidth: 0
Flags: HMW
AnchorPoint: "ced" 750 0 basechar 0
AnchorPoint: "dot" 664.009 760 basechar 0
LayerCount: 2
Fore
SplineSet
573.428710938 700 m 1
 738.428710938 700 l 5
 722.666015625 690 l 5
 585.666015625 690 l 1
 573.428710938 700 l 1
830 0 m 1
 670 0 l 1
 671.763671875 10 l 1
 831.763671875 10 l 1
 830 0 l 1
738.428710938 700 m 5
 831.763671875 10 l 1
 670 0 l 1
 585.666015625 690 l 1
 738.428710938 700 l 5
830 0 m 1
 671.763671875 10 l 1
 1003.42871094 700 l 1
 1173.42871094 700 l 1
 830 0 l 1
395 0 m 1
 235 0 l 1
 236.763671875 10 l 1
 396.763671875 10 l 1
 395 0 l 1
308.428710938 700 m 1
 396.763671875 10 l 1
 235 0 l 1
 138.428710938 700 l 1
 308.428710938 700 l 1
395 0 m 1
 236.763671875 10 l 1
 573.428710938 700 l 1
 722.666015625 690 l 5
 395 0 l 1
EndSplineSet
EndChar

StartChar: N
Encoding: 78 78 25
Width: 790
VWidth: 0
Flags: HMW
AnchorPoint: "ced" 630 0 basechar 0
AnchorPoint: "dot" 534.009 760 basechar 0
LayerCount: 2
Fore
SplineSet
710 0 m 1
 550 0 l 5
 554.231445312 24 l 5
 712.46875 14 l 1
 710 0 l 1
363.428710938 700 m 1
 359.90234375 680 l 1
 199.90234375 680 l 1
 203.428710938 700 l 1
 363.428710938 700 l 1
195.494140625 655 m 1
 363.428710938 700 l 1
 717.934570312 45 l 1
 550 0 l 5
 195.494140625 655 l 1
663.428710938 700 m 5
 833.428710938 700 l 1
 710 0 l 1
 543.526367188 20 l 5
 663.428710938 700 l 5
203.428710938 700 m 1
 369.90234375 680 l 1
 250 0 l 1
 80 0 l 1
 203.428710938 700 l 1
EndSplineSet
EndChar

StartChar: X
Encoding: 88 88 26
Width: 750
VWidth: 0
Flags: HMW
AnchorPoint: "ced" 635 0 basechar 0
AnchorPoint: "dot" 508.009 760 basechar 0
LayerCount: 2
Fore
SplineSet
168.428710938 700 m 1
 353.428710938 700 l 1
 725 0 l 1
 540 0 l 5
 168.428710938 700 l 1
643.428710938 700 m 5
 828.428710938 700 l 1
 210 0 l 1
 25 0 l 1
 643.428710938 700 l 5
EndSplineSet
EndChar

StartChar: Z
Encoding: 90 90 27
Width: 680
VWidth: 0
Flags: HMW
AnchorPoint: "ced" 495 0 basechar 0
AnchorPoint: "dot" 469.009 760 basechar 0
LayerCount: 2
Fore
SplineSet
693.743164062 560 m 1
 683.743164062 560 l 1
 708.428710938 700 l 1
 718.428710938 700 l 1
 693.743164062 560 l 1
89.685546875 140 m 1
 99.685546875 140 l 1
 75 0 l 1
 65 0 l 1
 89.685546875 140 l 1
208.428710938 700 m 1
 708.428710938 700 l 1
 681.979492188 550 l 1
 181.979492188 550 l 1
 208.428710938 700 l 1
101.44921875 150 m 1
 641.44921875 150 l 1
 615 0 l 1
 75 0 l 1
 101.44921875 150 l 1
508.743164062 560 m 1
 693.743164062 560 l 1
 274.685546875 140 l 5
 89.685546875 140 l 1
 508.743164062 560 l 1
EndSplineSet
EndChar

StartChar: l
Encoding: 108 108 28
Width: 265
VWidth: 0
Flags: HMW
AnchorPoint: "ced" 133 0 basechar 0
AnchorPoint: "dot" 272.827 793 basechar 0
LayerCount: 2
Fore
SplineSet
178.71875 730 m 5
 343.71875 730 l 1
 215 0 l 1
 50 0 l 5
 178.71875 730 l 5
EndSplineSet
EndChar

StartChar: b
Encoding: 98 98 29
Width: 655
VWidth: 0
Flags: HMW
AnchorPoint: "ced" 356 0 basechar 0
AnchorPoint: "dot" 478.668 673 basechar 0
LayerCount: 2
Fore
SplineSet
295.844726562 260 m 4
 281.915039062 181 313.803710938 135 368.803710938 135 c 4
 423.803710938 135 466.915039062 181 480.844726562 260 c 4
 494.774414062 339 467.885742188 385 412.885742188 385 c 4
 357.885742188 385 309.774414062 339 295.844726562 260 c 4
260.844726562 260 m 4
 287.118164062 409 329.453125 530 478.453125 530 c 4
 577.453125 530 673.880859375 419 645.844726562 260 c 4
 617.80859375 101 482.236328125 -10 383.236328125 -10 c 4
 244.236328125 -10 234.572265625 111 260.844726562 260 c 4
213.71875 730 m 5
 378.71875 730 l 5
 250 0 l 5
 85 0 l 5
 213.71875 730 l 5
EndSplineSet
EndChar

StartChar: c
Encoding: 99 99 30
Width: 573
VWidth: 0
Flags: HMW
AnchorPoint: "ced" 325 0 basechar 0
AnchorPoint: "dot" 443.668 673 basechar 0
LayerCount: 2
Fore
SplineSet
265.844726562 260 m 4
 254.560546875 196 282.685546875 140 349.685546875 140 c 0
 398.685546875 140 435.211914062 160 470.265625 200 c 1
 549.221679688 92 l 1
 490.9375 28 410.236328125 -10 323.236328125 -10 c 0
 174.236328125 -10 74.572265625 111 100.844726562 260 c 0
 127.118164062 409 269.453125 530 418.453125 530 c 0
 505.453125 530 571.576171875 491 607.467773438 428 c 1
 491.424804688 320 l 1
 470.477539062 360 441.00390625 380 392.00390625 380 c 0
 325.00390625 380 277.482421875 326 265.844726562 260 c 4
EndSplineSet
EndChar

StartChar: d
Encoding: 100 100 31
Width: 655
VWidth: 0
Flags: HMW
AnchorPoint: "ced" 300 0 basechar 0
AnchorPoint: "dot" 413.668 673 basechar 0
LayerCount: 2
Fore
SplineSet
451.844726562 260 m 4
 465.774414062 339 433.885742188 385 378.885742188 385 c 4
 323.885742188 385 280.774414062 339 266.844726562 260 c 4
 252.915039062 181 279.803710938 135 334.803710938 135 c 4
 389.803710938 135 437.915039062 181 451.844726562 260 c 4
486.844726562 260 m 4
 460.572265625 111 408.236328125 -10 269.236328125 -10 c 4
 170.236328125 -10 73.80859375 101 101.844726562 260 c 4
 129.880859375 419 265.453125 530 364.453125 530 c 4
 513.453125 530 513.118164062 409 486.844726562 260 c 4
699.71875 730 m 1
 571 0 l 1
 406 0 l 1
 534.71875 730 l 1
 699.71875 730 l 1
EndSplineSet
EndChar

StartChar: k
Encoding: 107 107 32
Width: 615
VWidth: 0
Flags: HMW
AnchorPoint: "ced" 535 0 basechar 0
AnchorPoint: "dot" 463.668 673 basechar 0
LayerCount: 2
Fore
SplineSet
276.311523438 291 m 1
 444.837890625 311 l 5
 610 0 l 1
 432 0 l 1
 276.311523438 291 l 1
495.690429688 520 m 1
 681.690429688 520 l 1
 249.395507812 110 l 5
 117.154296875 154 l 1
 495.690429688 520 l 1
193.71875 730 m 1
 358.71875 730 l 1
 230 0 l 1
 65 0 l 1
 193.71875 730 l 1
EndSplineSet
EndChar

StartChar: e
Encoding: 101 101 33
Width: 615
VWidth: 0
Flags: HMW
AnchorPoint: "ced" 320 0 basechar 0
AnchorPoint: "dot" 428.668 673 basechar 0
LayerCount: 2
Fore
SplineSet
610.844726562 260 m 1
 603.791992188 220 l 1
 438.791992188 220 l 1
 445.844726562 260 l 1
 610.844726562 260 l 1
438.791992188 220 m 1
 172.791992188 220 l 1
 189.895507812 317 l 5
 455.895507812 317 l 5
 438.791992188 220 l 1
445.844726562 260 m 1
 460.65625 344 447.885742188 385 380.885742188 385 c 0
 313.885742188 385 280.65625 344 265.844726562 260 c 1
 100.844726562 260 l 1
 128.880859375 419 274.453125 530 413.453125 530 c 0
 552.453125 530 638.880859375 419 610.844726562 260 c 1
 445.844726562 260 l 1
100.844726562 260 m 1
 265.844726562 260 l 1
 252.796875 186 284.803710938 135 335.803710938 135 c 0
 389.803710938 135 414.744140625 146 449.209960938 177 c 1
 554.221679688 92 l 1
 495.9375 28 405.236328125 -10 318.236328125 -10 c 0
 169.236328125 -10 72.80859375 101 100.844726562 260 c 1
EndSplineSet
EndChar

StartChar: p
Encoding: 112 112 34
Width: 655
VWidth: 0
Flags: HMW
AnchorPoint: "ced" 355 0 basechar 0
AnchorPoint: "dot" 478.668 673 basechar 0
LayerCount: 2
Fore
SplineSet
295.844726562 260 m 0
 281.915039062 181 313.803710938 135 368.803710938 135 c 0
 423.803710938 135 466.915039062 181 480.844726562 260 c 0
 494.774414062 339 467.885742188 385 412.885742188 385 c 0
 357.885742188 385 309.774414062 339 295.844726562 260 c 0
260.844726562 260 m 0
 287.118164062 409 339.453125 530 478.453125 530 c 0
 577.453125 530 673.880859375 419 645.844726562 260 c 0
 617.80859375 101 482.236328125 -10 383.236328125 -10 c 0
 234.236328125 -10 234.572265625 111 260.844726562 260 c 0
49.734375 -200 m 1
 176.690429688 520 l 1
 341.690429688 520 l 1
 214.734375 -200 l 1
 49.734375 -200 l 1
EndSplineSet
EndChar

StartChar: q
Encoding: 113 113 35
Width: 655
VWidth: 0
Flags: HMW
AnchorPoint: "ced" 300 0 basechar 0
AnchorPoint: "dot" 413.668 673 basechar 0
LayerCount: 2
Fore
SplineSet
450.844726562 260 m 0
 464.774414062 339 432.885742188 385 377.885742188 385 c 0
 322.885742188 385 279.774414062 339 265.844726562 260 c 0
 251.915039062 181 278.803710938 135 333.803710938 135 c 0
 388.803710938 135 436.915039062 181 450.844726562 260 c 0
485.844726562 260 m 0
 459.572265625 111 417.236328125 -10 268.236328125 -10 c 0
 169.236328125 -10 72.80859375 101 100.844726562 260 c 0
 128.880859375 419 264.453125 530 363.453125 530 c 0
 502.453125 530 512.118164062 409 485.844726562 260 c 0
534.734375 -200 m 1
 369.734375 -200 l 1
 496.690429688 520 l 1
 661.690429688 520 l 1
 534.734375 -200 l 1
EndSplineSet
EndChar

StartChar: h
Encoding: 104 104 36
Width: 635
VWidth: 0
Flags: HMW
AnchorPoint: "ced" 490 0 basechar 0
AnchorPoint: "dot" 468.668 673 basechar 0
LayerCount: 2
Fore
SplineSet
607.8984375 300 m 1
 555 0 l 1
 390 0 l 1
 442.8984375 300 l 1
 607.8984375 300 l 1
193.71875 730 m 1
 358.71875 730 l 1
 230 0 l 1
 65 0 l 1
 193.71875 730 l 1
442.8984375 300 m 1
 453.301757812 359 421.885742188 385 381.885742188 385 c 4
 332.885742188 385 293.477539062 360 279.37109375 280 c 1
 244.37109375 280 l 1
 268.880859375 419 304.453125 530 463.453125 530 c 4
 572.453125 530 630.64453125 429 607.8984375 300 c 1
 442.8984375 300 l 1
EndSplineSet
EndChar

StartChar: n
Encoding: 110 110 37
Width: 635
VWidth: 0
Flags: HMW
AnchorPoint: "ced" 530 0 basechar 0
AnchorPoint: "dot" 458.668 673 basechar 0
LayerCount: 2
Fore
SplineSet
617.8984375 300 m 1
 565 0 l 1
 400 0 l 1
 452.8984375 300 l 1
 617.8984375 300 l 1
146.690429688 520 m 1
 311.690429688 520 l 1
 220 0 l 1
 55 0 l 1
 146.690429688 520 l 1
452.8984375 300 m 1
 462.595703125 355 427.885742188 385 377.885742188 385 c 4
 319.885742188 385 282.595703125 355 269.37109375 280 c 1
 234.37109375 280 l 1
 258.880859375 419 324.453125 530 463.453125 530 c 4
 602.453125 530 640.64453125 429 617.8984375 300 c 1
 452.8984375 300 l 1
EndSplineSet
EndChar

StartChar: m
Encoding: 109 109 38
Width: 900
VWidth: 0
Flags: HMW
AnchorPoint: "ced" 795 0 basechar 0
AnchorPoint: "dot" 568.668 673 basechar 0
LayerCount: 2
Fore
SplineSet
907.8984375 300 m 1
 855 0 l 1
 690 0 l 1
 742.8984375 300 l 1
 907.8984375 300 l 1
742.8984375 300 m 1
 752.067382812 352 743.767578125 390 688.767578125 390 c 0
 625.767578125 390 600.477539062 360 586.37109375 280 c 1
 521.37109375 280 l 5
 545.880859375 419 639.453125 530 763.453125 530 c 0
 897.453125 530 930.64453125 429 907.8984375 300 c 1
 742.8984375 300 l 1
589.8984375 300 m 1
 537 0 l 1
 373 0 l 1
 425.8984375 300 l 1
 589.8984375 300 l 1
146.690429688 520 m 1
 311.690429688 520 l 1
 220 0 l 1
 55 0 l 1
 146.690429688 520 l 1
425.8984375 300 m 1
 435.067382812 352 428.767578125 390 373.767578125 390 c 0
 310.767578125 390 281.71484375 350 269.37109375 280 c 1
 234.37109375 280 l 1
 258.880859375 419 324.453125 530 448.453125 530 c 0
 592.453125 530 612.64453125 429 589.8984375 300 c 1
 425.8984375 300 l 1
EndSplineSet
EndChar

StartChar: r
Encoding: 114 114 39
Width: 410
VWidth: 0
Flags: HMW
AnchorPoint: "ced" 140 0 basechar 0
AnchorPoint: "dot" 328.668 673 basechar 0
LayerCount: 2
Fore
SplineSet
146.690429688 520 m 1
 311.690429688 520 l 1
 220 0 l 1
 55 0 l 1
 146.690429688 520 l 1
456.123046875 375 m 5
 436.123046875 375 l 6
 342.123046875 375 279.951171875 340 267.608398438 270 c 5
 232.608398438 270 l 5
 260.64453125 429 332.690429688 520 481.690429688 520 c 5
 456.123046875 375 l 5
EndSplineSet
EndChar

StartChar: u
Encoding: 117 117 40
Width: 635
VWidth: 0
Flags: HMW
AnchorPoint: "ced" 285 0 basechar 0
AnchorPoint: "dot" 423.668 673 basechar 0
LayerCount: 2
Fore
SplineSet
108.791992188 220 m 1
 161.690429688 520 l 1
 326.690429688 520 l 1
 273.791992188 220 l 1
 108.791992188 220 l 1
560 0 m 1
 395 0 l 1
 486.690429688 520 l 1
 651.690429688 520 l 1
 560 0 l 1
273.791992188 220 m 1
 264.09375 165 288.803710938 135 338.803710938 135 c 0
 386.803710938 135 424.09375 165 437.318359375 240 c 1
 472.318359375 240 l 1
 447.80859375 101 382.236328125 -10 253.236328125 -10 c 0
 114.236328125 -10 86.0458984375 91 108.791992188 220 c 1
 273.791992188 220 l 1
EndSplineSet
EndChar

StartChar: g
Encoding: 103 103 41
Width: 655
VWidth: 0
Flags: HMW
AnchorPoint: "dot" 418.668 673 basechar 0
LayerCount: 2
Fore
SplineSet
451.844726562 260 m 0
 465.774414062 339 433.885742188 385 378.885742188 385 c 0
 323.885742188 385 280.774414062 339 266.844726562 260 c 0
 252.915039062 181 279.803710938 135 334.803710938 135 c 0
 389.803710938 135 437.915039062 181 451.844726562 260 c 0
486.844726562 260 m 0
 460.572265625 111 398.236328125 -10 269.236328125 -10 c 4
 170.236328125 -10 73.80859375 101 101.844726562 260 c 0
 129.880859375 419 265.453125 530 364.453125 530 c 4
 503.453125 530 513.118164062 409 486.844726562 260 c 0
298.24609375 -78 m 5
 316.221679688 -146.196289062 308.334960938 -168.239257812 284.208007812 -220 c 1
 147.208007812 -220 73.671875 -172 37.95703125 -108 c 1
 187.357421875 -32 l 1
 207.125976562 -56 235.24609375 -78 298.24609375 -78 c 5
573.526367188 20 m 1
 408.526367188 20 l 1
 496.690429688 520 l 1
 661.690429688 520 l 1
 573.526367188 20 l 1
408.526367188 20 m 1
 573.526367188 20 l 1
 549.016601562 -119 413.208007812 -220 284.208007812 -220 c 1
 298.24609375 -78 l 5
 355.24609375 -78 398.123046875 -39 408.526367188 20 c 1
EndSplineSet
EndChar

StartChar: i
Encoding: 105 105 42
Width: 255
VWidth: 0
Flags: HMW
AnchorPoint: "ced" 125 0 basechar 0
LayerCount: 2
Fore
SplineSet
149.254882812 682 m 4
 158.776367188 736 210.53515625 780 264.53515625 780 c 4
 318.53515625 780 354.776367188 736 345.254882812 682 c 4
 335.733398438 628 283.974609375 584 229.974609375 584 c 4
 175.974609375 584 139.733398438 628 149.254882812 682 c 4
136.690429688 520 m 1
 301.690429688 520 l 1
 210 0 l 1
 45 0 l 1
 136.690429688 520 l 1
EndSplineSet
EndChar

StartChar: t
Encoding: 116 116 43
Width: 420
VWidth: 0
Flags: HMW
AnchorPoint: "ced" 267 0 basechar 0
AnchorPoint: "dot" 423.668 673 basechar 0
LayerCount: 2
Fore
SplineSet
101.690429688 520 m 1
 471.690429688 520 l 1
 446.123046875 375 l 1
 76.123046875 375 l 1
 101.690429688 520 l 1
274.975585938 170 m 1
 104.685546875 140 l 1
 198.66796875 673 l 1
 363.66796875 673 l 1
 274.975585938 170 l 1
303.803710938 135 m 1
 317.803710938 135 334.744140625 146 345.211914062 160 c 5
 409.405273438 42 l 1
 377.291992188 13 328.236328125 -10 246.236328125 -10 c 1
 303.803710938 135 l 1
274.975585938 170 m 1
 271.096679688 148 278.803710938 135 303.803710938 135 c 5
 246.236328125 -10 l 1
 127.236328125 -10 90.755859375 61 104.685546875 140 c 1
 274.975585938 170 l 1
EndSplineSet
EndChar

StartChar: a
Encoding: 97 97 44
Width: 580
VWidth: 0
Flags: HMW
AnchorPoint: "ced" 435 0 basechar 0
AnchorPoint: "ring" 393.668 673 basechar 0
AnchorPoint: "dot" 393.668 673 basechar 0
LayerCount: 2
Fore
SplineSet
363.250976562 302 m 1
 453.250976562 302 l 1
 434.913085938 198 l 1
 374.913085938 198 l 1
 363.250976562 302 l 1
404.661132812 310 m 1
 414.359375 365 386.885742188 385 345.885742188 385 c 1
 377.453125 530 l 1
 520.453125 530 595.052734375 454 573.1875 330 c 1
 404.661132812 310 l 1
345.885742188 385 m 1
 311.885742188 385 273.828125 379 238.067382812 352 c 1
 149.346679688 450 l 1
 214.987304688 499 275.453125 530 377.453125 530 c 1
 345.885742188 385 l 1
404.661132812 310 m 1
 573.1875 330 l 1
 515 0 l 1
 350 0 l 1
 404.661132812 310 l 1
223.919921875 147 m 1
 217.924804688 113 243.750976562 95 276.750976562 95 c 0
 334.750976562 95 371.159179688 120 385.265625 200 c 1
 416.739257812 180 l 1
 397.51953125 71 327.236328125 -10 198.236328125 -10 c 0
 119.236328125 -10 40.2294921875 41 59.44921875 150 c 1
 223.919921875 147 l 1
363.250976562 302 m 1
 374.913085938 198 l 1
 265.913085938 198 230.091796875 182 223.919921875 147 c 1
 59.44921875 150 l 1
 83.2529296875 285 226.250976562 302 363.250976562 302 c 1
EndSplineSet
EndChar

StartChar: j
Encoding: 106 106 45
Width: 255
VWidth: 0
Flags: HMW
LayerCount: 2
Fore
SplineSet
153.254882812 682 m 4
 162.776367188 736 214.53515625 780 268.53515625 780 c 4
 322.53515625 780 358.776367188 736 349.254882812 682 c 4
 339.733398438 628 287.974609375 584 233.974609375 584 c 4
 179.974609375 584 143.733398438 628 153.254882812 682 c 4
140.690429688 520 m 5
 305.690429688 520 l 5
 203.419921875 -60 l 5
 43.7099609375 -30 l 5
 140.690429688 520 l 5
0.5390625 -65 m 5
 4.9716796875 -210 l 5
 -52.0283203125 -210 -118.854492188 -192 -139.859375 -158 c 5
 -48.5244140625 -37 l 5
 -34.8740234375 -56 -21.4609375 -65 0.5390625 -65 c 5
43.7099609375 -30 m 5
 203.419921875 -60 l 5
 182.4375 -179 93.9716796875 -210 4.9716796875 -210 c 5
 0.5390625 -65 l 5
 27.5390625 -65 38.94921875 -57 43.7099609375 -30 c 5
EndSplineSet
EndChar

StartChar: s
Encoding: 115 115 46
Width: 520
VWidth: 0
Flags: HMW
AnchorPoint: "ced" 265 0 basechar 0
AnchorPoint: "dot" 383.668 673 basechar 0
LayerCount: 2
Fore
SplineSet
348.388671875 161 m 1
 511.801757812 152 l 1
 496.108398438 63 412.236328125 -10 273.236328125 -10 c 0
 164.236328125 -10 96.3505859375 19 53.1640625 86 c 1
 152.913085938 198 l 1
 190.625 151 235.803710938 135 283.803710938 135 c 0
 331.803710938 135 345.744140625 146 348.388671875 161 c 1
299.888671875 368 m 1
 134.711914062 367 l 1
 149.875976562 453 248.453125 530 367.453125 530 c 4
 466.453125 530 523.458007812 496 556.994140625 448 c 1
 466.833007812 345 l 1
 434.651367188 378 399.767578125 390 362.767578125 390 c 0
 324.767578125 390 301.828125 379 299.888671875 368 c 1
369.24609375 336 m 0
 464.061523438 320.607421875 532.9609375 272 511.801757812 152 c 5
 348.388671875 161 l 1
 351.033203125 176 341.547851562 187.734375 265.44140625 201 c 0
 184.693359375 215.07421875 117.431640625 269 134.711914062 367 c 1
 299.888671875 368 l 1
 297.772460938 356 303.66015625 346.647460938 369.24609375 336 c 0
EndSplineSet
EndChar

StartChar: v
Encoding: 118 118 47
Width: 590
VWidth: 0
Flags: HMW
AnchorPoint: "ced" 287 0 basechar 0
AnchorPoint: "dot" 391.668 673 basechar 0
LayerCount: 2
Fore
SplineSet
365 0 m 5
 225 0 l 1
 225.881835938 5 l 1
 365.881835938 5 l 5
 365 0 l 5
225.881835938 5 m 1
 496.690429688 520 l 1
 666.690429688 520 l 1
 365 0 l 5
 225.881835938 5 l 1
106.690429688 520 m 1
 276.690429688 520 l 1
 365.881835938 5 l 5
 225 0 l 1
 106.690429688 520 l 1
EndSplineSet
EndChar

StartChar: f
Encoding: 102 102 48
Width: 375
VWidth: 0
Flags: HMW
AnchorPoint: "ced" 160 0 basechar 0
LayerCount: 2
Fore
SplineSet
101.690429688 520 m 1
 454.690429688 520 l 1
 429.123046875 375 l 1
 76.123046875 375 l 1
 101.690429688 520 l 1
340.216796875 540 m 1
 245 0 l 1
 80 0 l 1
 184.033203125 590 l 1
 340.216796875 540 l 1
387.915039062 595 m 1
 397.482421875 740 l 1
 459.482421875 740 500.602539062 718 521.3125 688 c 1
 421.740234375 577 l 1
 413.50390625 587 406.915039062 595 387.915039062 595 c 1
340.216796875 540 m 1
 184.033203125 590 l 1
 197.962890625 669 278.482421875 740 397.482421875 740 c 1
 387.915039062 595 l 1
 352.915039062 595 345.330078125 569 340.216796875 540 c 1
EndSplineSet
Substitution2: "fi-1" fi
EndChar

StartChar: y
Encoding: 121 121 49
Width: 579
VWidth: 0
Flags: HMW
AnchorPoint: "dot" 423.668 673 basechar 0
LayerCount: 2
Fore
SplineSet
120.690429688 520 m 1
 290.690429688 520 l 1
 374.881835938 5 l 5
 236.236328125 -10 l 1
 120.690429688 520 l 1
149.775390625 -75 m 1
 160.971679688 -210 l 1
 103.971679688 -210 39.5556640625 -184 18.55078125 -150 c 1
 89.5947265625 -42 l 1
 103.244140625 -61 120.775390625 -75 149.775390625 -75 c 1
233.118164062 -5 m 2
 500.690429688 520 l 1
 665.690429688 520 l 1
 378.419921875 -60 l 2
 330.868164062 -156.0078125 249.971679688 -210 160.971679688 -210 c 1
 149.775390625 -75 l 1
 176.775390625 -75 208.05859375 -52.3974609375 233.118164062 -5 c 2
EndSplineSet
EndChar

StartChar: w
Encoding: 119 119 50
Width: 795
VWidth: 0
Flags: HMW
AnchorPoint: "ced" 565 0 basechar 0
AnchorPoint: "dot" 526.668 673 basechar 0
LayerCount: 2
Fore
SplineSet
426.690429688 520 m 1
 571.690429688 520 l 1
 562.874023438 470 l 1
 417.874023438 470 l 1
 426.690429688 520 l 1
645 0 m 1
 490 0 l 1
 490.881835938 5 l 1
 629.408203125 25 l 1
 645 0 l 1
524.408203125 25 m 5
 711.690429688 520 l 1
 876.690429688 520 l 1
 645 0 l 1
 524.408203125 25 l 5
427.874023438 470 m 1
 571.690429688 520 l 1
 619.408203125 25 l 1
 490 0 l 1
 427.874023438 470 l 1
325 0 m 1
 170 0 l 1
 174.408203125 25 l 1
 325.881835938 5 l 1
 325 0 l 1
204.408203125 25 m 1
 426.690429688 520 l 1
 552.874023438 470 l 1
 325 0 l 1
 204.408203125 25 l 1
121.690429688 520 m 1
 286.690429688 520 l 1
 299.408203125 25 l 1
 170 0 l 1
 121.690429688 520 l 1
EndSplineSet
EndChar

StartChar: x
Encoding: 120 120 51
Width: 615
VWidth: 0
Flags: HMW
AnchorPoint: "ced" 510 0 basechar 0
AnchorPoint: "dot" 398.668 673 basechar 0
LayerCount: 2
Fore
SplineSet
15 0 m 1
 481.690429688 520 l 5
 671.690429688 520 l 1
 205 0 l 1
 15 0 l 1
126.690429688 520 m 1
 316.690429688 520 l 1
 600 0 l 1
 410 0 l 5
 126.690429688 520 l 1
EndSplineSet
EndChar

StartChar: z
Encoding: 122 122 52
Width: 570
VWidth: 0
Flags: HMW
AnchorPoint: "ced" 445 0 basechar 0
AnchorPoint: "dot" 408.668 673 basechar 0
LayerCount: 2
Fore
SplineSet
78.8037109375 135 m 1
 98.8037109375 135 l 1
 75 0 l 1
 55 0 l 1
 78.8037109375 135 l 1
100.567382812 145 m 1
 540.567382812 145 l 1
 515 0 l 1
 75 0 l 1
 100.567382812 145 l 1
576.690429688 520 m 1
 596.690429688 520 l 1
 572.885742188 385 l 5
 552.885742188 385 l 5
 576.690429688 520 l 1
166.690429688 520 m 1
 576.690429688 520 l 1
 551.123046875 375 l 5
 141.123046875 375 l 5
 166.690429688 520 l 1
377.885742188 385 m 5
 572.885742188 385 l 5
 273.803710938 135 l 1
 78.8037109375 135 l 1
 377.885742188 385 l 5
EndSplineSet
EndChar

StartChar: zero
Encoding: 48 48 53
Width: 600
VWidth: 0
Flags: HMW
LayerCount: 2
Fore
SplineSet
246.71484375 350 m 4
 225.202148438 228 232.685546875 140 324.685546875 140 c 0
 416.685546875 140 455.202148438 228 476.71484375 350 c 4
 498.2265625 472 490.743164062 560 398.743164062 560 c 0
 306.743164062 560 268.2265625 472 246.71484375 350 c 4
76.71484375 350 m 0
 111.803710938 549 250.192382812 710 425.192382812 710 c 0
 600.192382812 710 681.803710938 549 646.71484375 350 c 0
 611.625 151 473.236328125 -10 298.236328125 -10 c 0
 123.236328125 -10 41.625 151 76.71484375 350 c 0
EndSplineSet
EndChar

StartChar: one
Encoding: 49 49 54
Width: 600
VWidth: 0
Flags: HMW
LayerCount: 2
Fore
SplineSet
583.428710938 700 m 1
 579.197265625 676 l 1
 419.197265625 676 l 1
 423.428710938 700 l 1
 583.428710938 700 l 1
423.428710938 700 m 1
 527.854492188 606 l 1
 246.115234375 426 l 1
 175.216796875 540 l 1
 423.428710938 700 l 1
411.666015625 690 m 1
 583.428710938 700 l 1
 460 0 l 1
 290 0 l 1
 411.666015625 690 l 1
EndSplineSet
EndChar

StartChar: six
Encoding: 54 54 55
Width: 600
VWidth: 0
Flags: HMW
LayerCount: 2
Fore
SplineSet
248.791992188 220 m 1
 153.791992188 220 l 1
 176.538085938 349 309.465820312 445 438.465820312 445 c 1
 354.661132812 310 l 1
 296.661132812 310 256.7265625 265 248.791992188 220 c 1
248.791992188 220 m 0
 240.857421875 175 264.922851562 130 322.922851562 130 c 0
 380.922851562 130 420.857421875 175 428.791992188 220 c 0
 436.7265625 265 412.661132812 310 354.661132812 310 c 1
 438.465820312 445 l 1
 537.465820312 445 611.538085938 349 588.791992188 220 c 0
 566.045898438 91 447.236328125 -10 298.236328125 -10 c 0
 149.236328125 -10 66.0458984375 91 88.7919921875 220 c 0
 98.8896484375 277.265625 133.604492188 325.822265625 174.475585938 377 c 6
 432.428710938 700 l 5
 612.428710938 700 l 5
 309.560546875 351.75390625 l 1
 245.991210938 344.909179688 l 1
 202.344726562 315.858398438 257.813476562 271.161132812 248.791992188 220 c 0
EndSplineSet
EndChar

StartChar: period
Encoding: 46 46 56
Width: 230
VWidth: 0
Flags: HMW
LayerCount: 2
Fore
SplineSet
10 95 m 4
 10 153 57 200 115 200 c 4
 173 200 220 153 220 95 c 4
 220 37 173 -10 115 -10 c 4
 57 -10 10 37 10 95 c 4
EndSplineSet
EndChar

StartChar: comma
Encoding: 44 44 58
Width: 254
VWidth: 0
Flags: HMW
LayerCount: 2
Fore
SplineSet
36.7509765625 95 m 0
 46.978515625 153 103.265625 200 165.265625 200 c 0
 229.265625 200 267.331054688 155 257.103515625 97 c 0
 250.482421875 59.4482421875 221.939453125 22.74609375 197.626953125 -2.3505859375 c 2
 77.0771484375 -130 l 1
 -12.9228515625 -130 l 1
 72.3310546875 0.8505859375 l 1
 40.626953125 22.9970703125 30.677734375 60.55859375 36.7509765625 95 c 0
EndSplineSet
EndChar

StartChar: two
Encoding: 50 50 60
Width: 600
VWidth: 0
Flags: HMW
LayerCount: 2
Fore
SplineSet
73.8037109375 135 m 1
 93.8037109375 135 l 1
 70 0 l 1
 50 0 l 1
 73.8037109375 135 l 1
461.400390625 490 m 5
 468.27734375 529 458.625 565 394.625 565 c 0
 335.625 565 294.571289062 525 244.936523438 442 c 1
 142.21875 523 l 1
 202.91015625 629 302.192382812 710 420.192382812 710 c 0
 559.192382812 710 638.44140625 615 617.458007812 496 c 1
 461.400390625 490 l 5
70 0 m 1
 95.5673828125 145 l 1
 575.567382812 145 l 1
 550 0 l 1
 70 0 l 1
442.021484375 261 m 2
 281.803710938 135 l 1
 73.8037109375 135 l 1
 301.661132812 310 l 2
 415.868164062 395.713867188 450.64453125 429 461.400390625 490 c 5
 617.458007812 496 l 1
 601.588867188 406 561.286132812 354.793945312 442.021484375 261 c 2
EndSplineSet
EndChar

StartChar: three
Encoding: 51 51 62
Width: 600
VWidth: 0
Flags: HMW
LayerCount: 2
Fore
SplineSet
323.880859375 419 m 1
 510.880859375 419 611.185546875 347 584.736328125 197 c 0
 560.05078125 57 425.236328125 -10 298.236328125 -10 c 0
 208.236328125 -10 118.46875 14 67.4560546875 99 c 1
 183.736328125 197 l 1
 215.038085938 142 265.627929688 134 313.627929688 134 c 0
 366.627929688 134 414.623046875 168 423.262695312 217 c 4
 431.903320312 266 405.016601562 295 302.016601562 295 c 5
 323.880859375 419 l 1
181.1484375 602 m 1
 240.375976562 660 311.192382812 710 425.192382812 710 c 0
 559.192382812 710 630.91015625 629 613.453125 530 c 0
 592.470703125 411 479.54296875 315 305.54296875 315 c 1
 327.583984375 440 l 1
 397.583984375 440 437.521484375 468 444.221679688 506 c 0
 450.921875 544 431.625 565 389.625 565 c 0
 344.625 565 311.33203125 552 262.869140625 504 c 1
 181.1484375 602 l 1
EndSplineSet
EndChar

StartChar: eight
Encoding: 56 56 63
Width: 600
VWidth: 0
Flags: HMW
LayerCount: 2
Fore
SplineSet
333.692382812 503 m 0
 327.521484375 468 341.583984375 440 377.583984375 440 c 0
 413.583984375 440 437.521484375 468 443.692382812 503 c 0
 449.864257812 538 435.80078125 566 399.80078125 566 c 0
 363.80078125 566 339.864257812 538 333.692382812 503 c 0
252.91015625 215 m 0
 244.975585938 170 276.627929688 134 323.627929688 134 c 0
 370.627929688 134 414.975585938 170 422.91015625 215 c 0
 430.844726562 260 399.192382812 296 352.192382812 296 c 0
 305.192382812 296 260.844726562 260 252.91015625 215 c 0
171.690429688 520 m 0
 190.91015625 629 301.192382812 710 425.192382812 710 c 0
 549.192382812 710 630.91015625 629 611.690429688 520 c 0
 592.470703125 411 481.306640625 325 357.306640625 325 c 0
 233.306640625 325 152.470703125 411 171.690429688 520 c 0
84.736328125 197 m 4
 107.659179688 327 235.118164062 409 372.118164062 409 c 0
 509.118164062 409 607.659179688 327 584.736328125 197 c 4
 561.813476562 67 435.236328125 -10 298.236328125 -10 c 0
 161.236328125 -10 61.8134765625 67 84.736328125 197 c 4
EndSplineSet
EndChar

StartChar: four
Encoding: 52 52 64
Width: 600
VWidth: 0
Flags: HMW
LayerCount: 2
Fore
SplineSet
84.08203125 250 m 1
 104.08203125 250 l 1
 78.5146484375 105 l 5
 58.5146484375 105 l 5
 84.08203125 250 l 1
104.08203125 250 m 1
 614.08203125 250 l 1
 588.514648438 105 l 5
 78.5146484375 105 l 5
 104.08203125 250 l 1
623.428710938 700 m 1
 619.197265625 676 l 1
 444.197265625 676 l 1
 448.428710938 700 l 1
 623.428710938 700 l 1
448.428710938 700 m 1
 556.19921875 659 l 1
 205.555664062 230 l 1
 84.08203125 250 l 1
 448.428710938 700 l 1
454.90234375 680 m 1
 623.428710938 700 l 1
 500 0 l 1
 335 0 l 1
 454.90234375 680 l 1
EndSplineSet
EndChar

StartChar: five
Encoding: 53 53 65
Width: 600
VWidth: 0
Flags: HMW
LayerCount: 2
Fore
SplineSet
134.837890625 311 m 5
 151.008789062 346 l 5
 317.458007812 496 l 1
 249.547851562 281 l 1
 134.837890625 311 l 5
440.228515625 455 m 1
 547.228515625 455 613.477539062 360 588.791992188 220 c 0
 562.342773438 70 425.236328125 -10 298.236328125 -10 c 0
 208.236328125 -10 118.46875 14 67.4560546875 99 c 1
 192.380859375 212 l 1
 223.68359375 157 254.98046875 136 317.98046875 136 c 0
 370.98046875 136 415.15234375 171 425.555664062 230 c 0
 435.958984375 289 419.424804688 320 356.424804688 320 c 1
 440.228515625 455 l 1
134.837890625 311 m 5
 253.428710938 700 l 1
 408.428710938 700 l 1
 291.600585938 321 l 1
 134.837890625 311 l 5
253.428710938 700 m 1
 633.428710938 700 l 1
 607.861328125 555 l 1
 227.861328125 555 l 1
 253.428710938 700 l 1
356.424804688 320 m 1
 299.424804688 320 272.250976562 302 249.547851562 281 c 1
 231.311523438 291 l 1
 268.767578125 390 331.228515625 455 440.228515625 455 c 1
 356.424804688 320 l 1
EndSplineSet
EndChar

StartChar: seven
Encoding: 55 55 66
Width: 600
VWidth: 0
Flags: HMW
LayerCount: 2
Fore
SplineSet
651.506835938 570 m 1
 321 0 l 5
 154 0 l 1
 484.506835938 570 l 1
 651.506835938 570 l 1
653.428710938 700 m 1
 674.428710938 700 l 1
 651.506835938 570 l 1
 630.506835938 570 l 1
 653.428710938 700 l 1
173.428710938 700 m 1
 653.428710938 700 l 1
 627.861328125 555 l 1
 147.861328125 555 l 1
 173.428710938 700 l 1
EndSplineSet
EndChar

StartChar: exclam
Encoding: 33 33 67
Width: 230
VWidth: 0
Flags: HMW
LayerCount: 2
Fore
SplineSet
112.400390625 490 m 1
 290.400390625 490 l 1
 221.08203125 250 l 1
 97.08203125 250 l 1
 112.400390625 490 l 1
154.71875 730 m 1
 332.71875 730 l 1
 290.400390625 490 l 1
 112.400390625 490 l 1
 154.71875 730 l 1
EndSplineSet
Refer: 56 46 S 1 0 0.176327 1 0 0 2
EndChar

StartChar: quotesingle
Encoding: 39 39 69
Width: 170
VWidth: 0
Flags: HMW
LayerCount: 2
Fore
SplineSet
115.494140625 655 m 0
 123.78125 702 168.482421875 740 215.482421875 740 c 0
 262.482421875 740 293.78125 702 285.494140625 655 c 0
 283.907226562 646 281.444335938 634.483398438 276.028320312 624 c 6
 201.63671875 480 l 1
 137.63671875 480 l 1
 114.028320312 624 l 6
 112.309570312 634.483398438 113.907226562 646 115.494140625 655 c 0
EndSplineSet
EndChar

StartChar: numbersign
Encoding: 35 35 70
Width: 810
VWidth: 0
Flags: HMW
LayerCount: 2
Fore
SplineSet
781.134765625 290 m 5
 753.803710938 135 l 1
 63.8037109375 135 l 1
 91.134765625 290 l 5
 781.134765625 290 l 5
869.625 565 m 5
 842.293945312 410 l 1
 152.293945312 410 l 1
 179.625 565 l 5
 869.625 565 l 5
648.428710938 700 m 1
 808.428710938 700 l 1
 565 0 l 1
 405 0 l 1
 648.428710938 700 l 1
368.428710938 700 m 1
 528.428710938 700 l 1
 285 0 l 1
 125 0 l 1
 368.428710938 700 l 1
EndSplineSet
EndChar

StartChar: percent
Encoding: 37 37 71
Width: 940
VWidth: 0
Flags: HMW
LayerCount: 2
Fore
SplineSet
711.739257812 180 m 0
 707.331054688 155 721.803710938 135 743.803710938 135 c 0
 765.803710938 135 787.331054688 155 791.739257812 180 c 0
 796.147460938 205 781.673828125 225 759.673828125 225 c 0
 737.673828125 225 716.147460938 205 711.739257812 180 c 0
271.690429688 520 m 0
 267.282226562 495 281.754882812 475 303.754882812 475 c 0
 325.754882812 475 347.282226562 495 351.690429688 520 c 0
 356.098632812 545 341.625 565 319.625 565 c 0
 297.625 565 276.098632812 545 271.690429688 520 c 0
121.690429688 520 m 0
 140.204101562 625 240.192382812 710 345.192382812 710 c 0
 450.192382812 710 520.204101562 625 501.690429688 520 c 0
 483.17578125 415 383.1875 330 278.1875 330 c 0
 173.1875 330 103.17578125 415 121.690429688 520 c 0
561.739257812 180 m 0
 580.252929688 285 680.241210938 370 785.241210938 370 c 0
 890.241210938 370 960.252929688 285 941.739257812 180 c 0
 923.224609375 75 823.236328125 -10 718.236328125 -10 c 0
 613.236328125 -10 543.224609375 75 561.739257812 180 c 0
733.428710938 700 m 1
 893.428710938 700 l 1
 330 0 l 1
 170 0 l 1
 733.428710938 700 l 1
EndSplineSet
EndChar

StartChar: dollar
Encoding: 36 36 72
Width: 600
VWidth: 0
Flags: HMW
LayerCount: 2
Fore
SplineSet
411 780 m 5
 481 780 l 5
 351 -80 l 1
 281 -80 l 1
 411 780 l 5
EndSplineSet
Refer: 21 83 N 1 0 0 1 -10 0 2
EndChar

StartChar: asterisk
Encoding: 42 42 73
Width: 324
VWidth: 0
Flags: HMW
LayerCount: 2
Fore
SplineSet
140.243164062 457.368164062 m 1
 102.0390625 552.630859375 l 1
 259.060546875 592.990234375 l 1
 388.295898438 702.631835938 l 1
 426.5 607.369140625 l 1
 269.479492188 567.009765625 l 1
 140.243164062 457.368164062 l 1
111.69140625 607.368164062 m 1
 183.48828125 702.631835938 l 1
 274.060546875 592.990234375 l 1
 416.848632812 552.631835938 l 1
 345.05078125 457.368164062 l 1
 254.479492188 567.009765625 l 1
 111.69140625 607.368164062 l 1
235.71875 730 m 1
 345.71875 730 l 1
 279.26953125 580 l 1
 292.8203125 430 l 1
 182.8203125 430 l 1
 249.26953125 580 l 1
 235.71875 730 l 1
EndSplineSet
EndChar

StartChar: slash
Encoding: 47 47 74
Width: 430
VWidth: 0
Flags: HMW
LayerCount: 2
Fore
SplineSet
437.53515625 780 m 1
 587.53515625 780 l 1
 115.893554688 -80 l 5
 -34.1064453125 -80 l 1
 437.53515625 780 l 1
EndSplineSet
EndChar

StartChar: ampersand
Encoding: 38 38 75
Width: 715
VWidth: 0
Flags: HMW
LayerCount: 2
Fore
SplineSet
336.059570312 403 m 0
 416.517578125 423.8046875 471.400390625 490 476.690429688 520 c 1
 638.453125 530 l 1
 621.702148438 435 490.508789062 357.01171875 394.069335938 335 c 0
 292.2421875 311.758789062 256.55078125 264 247.028320312 210 c 1
 71.7392578125 180 l 1
 96.4248046875 320 225.377929688 374.379882812 336.059570312 403 c 0
378.453125 530 m 1
 220.216796875 540 l 1
 239.436523438 649 351.192382812 710 460.192382812 710 c 0
 569.192382812 710 659.436523438 649 638.453125 530 c 1
 476.690429688 520 l 1
 482.685546875 554 468.387695312 575 436.387695312 575 c 0
 409.387695312 575 382.685546875 554 378.453125 530 c 1
311.311523438 291 m 2
 241.967773438 395.72265625 206.110351562 460 220.216796875 540 c 1
 378.453125 530 l 1
 371.223632812 489 394.432617188 437.349609375 459.774414062 339 c 2
 685 0 l 1
 505 0 l 1
 311.311523438 291 l 2
617.301757812 359 m 1
 716.55078125 264 l 5
 628.514648438 105 487.236328125 -10 298.236328125 -10 c 0
 149.236328125 -10 48.9931640625 51 71.7392578125 180 c 1
 247.028320312 210 l 1
 238.388671875 161 276.803710938 135 353.803710938 135 c 0
 440.803710938 135 551.028320312 210 617.301757812 359 c 1
EndSplineSet
EndChar

StartChar: parenleft
Encoding: 40 40 76
Width: 275
VWidth: 0
Flags: HMW
LayerCount: 2
Fore
SplineSet
302.245117188 750 m 5
 393.428710938 700 l 5
 227.583984375 440 165.869140625 90 240.024414062 -170 c 5
 131.208007812 -220 l 5
 -34.130859375 90 27.583984375 440 302.245117188 750 c 5
EndSplineSet
EndChar

StartChar: hyphen
Encoding: 45 45 78
Width: 430
VWidth: 0
Flags: HMW
LayerCount: 2
Fore
SplineSet
131.123046875 375 m 5
 431.123046875 375 l 5
 403.791992188 220 l 1
 103.791992188 220 l 1
 131.123046875 375 l 5
EndSplineSet
EndChar

StartChar: plus
Encoding: 43 43 79
Width: 510
VWidth: 0
Flags: HMW
LayerCount: 2
Fore
SplineSet
438.856445312 589 m 5
 358.627929688 134 l 5
 198.627929688 134 l 1
 278.856445312 589 l 1
 438.856445312 589 l 5
107.407226562 439 m 1
 557.407226562 439 l 1
 530.077148438 284 l 1
 80.0771484375 284 l 1
 107.407226562 439 l 1
EndSplineSet
EndChar

StartChar: equal
Encoding: 61 61 80
Width: 510
VWidth: 0
Flags: HMW
LayerCount: 2
Fore
SplineSet
82.0166015625 295 m 1
 532.016601562 295 l 1
 511.739257812 180 l 1
 61.7392578125 180 l 1
 82.0166015625 295 l 1
123.453125 530 m 5
 573.453125 530 l 5
 553.17578125 415 l 1
 103.17578125 415 l 1
 123.453125 530 l 5
EndSplineSet
EndChar

StartChar: backslash
Encoding: 92 92 81
Width: 430
VWidth: 0
Flags: HMW
LayerCount: 2
Fore
SplineSet
267.53515625 780 m 1
 435.893554688 -80 l 1
 285.893554688 -80 l 5
 117.53515625 780 l 1
 267.53515625 780 l 1
EndSplineSet
EndChar

StartChar: less
Encoding: 60 60 82
Width: 510
VWidth: 0
Flags: HMW
LayerCount: 2
Fore
SplineSet
103.17578125 415 m 5
 519.673828125 225 l 5
 499.395507812 110 l 5
 82.8984375 300 l 5
 103.17578125 415 l 5
103.17578125 415 m 5
 586.677734375 605 l 5
 566.400390625 490 l 5
 82.8984375 300 l 5
 103.17578125 415 l 5
EndSplineSet
EndChar

StartChar: question
Encoding: 63 63 84
Width: 555
VWidth: 0
Flags: HMW
LayerCount: 2
Fore
SplineSet
366.936523438 442 m 0
 416.497070312 466.013671875 432.458007812 496 437.748046875 526 c 1
 608.038085938 556 l 1
 591.287109375 461 566.737304688 411.75 491.651367188 378 c 0
 427.95703125 349.370117188 423.364257812 331 409.08203125 250 c 1
 249.08203125 250 l 1
 255.53125 400 302.255859375 410.66015625 366.936523438 442 c 0
437.748046875 526 m 1
 443.390625 558 421.151367188 585 372.151367188 585 c 0
 319.151367188 585 287.506835938 570 241.397460938 507 c 1
 144.561523438 593 l 1
 201.725585938 679 292.482421875 740 415.482421875 740 c 0
 559.482421875 740 625.494140625 655 608.038085938 556 c 1
 437.748046875 526 l 1
EndSplineSet
Refer: 56 46 S 1 0 0.176327 1 169 0 2
EndChar

StartChar: at
Encoding: 64 64 85
Width: 1050
VWidth: 0
Flags: HMW
LayerCount: 2
Fore
SplineSet
665.844726562 260 m 0
 679.774414062 339 647.885742188 385 592.885742188 385 c 0
 537.885742188 385 494.774414062 339 480.844726562 260 c 0
 466.915039062 181 493.803710938 135 548.803710938 135 c 0
 603.803710938 135 651.915039062 181 665.844726562 260 c 0
700.844726562 260 m 0
 674.572265625 111 622.236328125 -10 483.236328125 -10 c 0
 384.236328125 -10 287.80859375 101 315.844726562 260 c 0
 343.880859375 419 479.453125 530 578.453125 530 c 0
 727.453125 530 727.118164062 409 700.844726562 260 c 0
871.690429688 520 m 1
 801.159179688 120 l 1
 637.6328125 100 l 1
 711.690429688 520 l 1
 871.690429688 520 l 1
100.844726562 260 m 0
 146.513671875 519 374.71875 730 653.71875 730 c 0
 912.71875 730 1093.56640625 559 1047.8984375 300 c 0
 1006.22167969 63.638671875 881.954101562 -10.2880859375 776.052734375 -10.2880859375 c 4
 651.979492188 -10.2880859375 627.6171875 43.19921875 637.6328125 100 c 1
 801.159179688 120 l 1
 790.673828125 60.53515625 796.6875 32.859375 833.172851562 32.859375 c 0
 884.440429688 32.859375 984.413085938 115.765625 1016.8984375 300 c 0
 1059.74511719 543 891.60546875 701 648.60546875 701 c 0
 385.60546875 701 174.692382812 503 131.844726562 260 c 0
 88.998046875 17 250.084960938 -181 493.084960938 -181 c 1
 487.971679688 -210 l 1
 228.971679688 -210 55.1767578125 1 100.844726562 260 c 0
EndSplineSet
EndChar

StartChar: bracketleft
Encoding: 91 91 86
Width: 315
VWidth: 0
Flags: HMW
LayerCount: 2
Fore
SplineSet
247.974609375 584 m 1
 273.71875 730 l 1
 423.71875 730 l 1
 397.974609375 584 l 1
 247.974609375 584 l 1
109.734375 -200 m 1
 135.478515625 -54 l 5
 285.478515625 -54 l 5
 259.734375 -200 l 1
 109.734375 -200 l 1
173.71875 730 m 1
 324.71875 730 l 1
 160.734375 -200 l 1
 9.734375 -200 l 1
 173.71875 730 l 1
EndSplineSet
EndChar

StartChar: asciicircum
Encoding: 94 94 88
Width: 510
VWidth: 0
Flags: HMW
LayerCount: 2
Fore
SplineSet
415.8203125 430 m 1
 298.71875 730 l 5
 468.71875 730 l 5
 565.8203125 430 l 1
 415.8203125 430 l 1
298.71875 730 m 1
 468.71875 730 l 1
 245.8203125 430 l 1
 95.8203125 430 l 1
 298.71875 730 l 1
EndSplineSet
EndChar

StartChar: underscore
Encoding: 95 95 89
Width: 600
VWidth: 0
Flags: HMW
LayerCount: 2
Fore
SplineSet
-9.052734375 -40 m 5
 594.947265625 -40 l 5
 566.734375 -200 l 1
 -37.265625 -200 l 1
 -9.052734375 -40 l 5
EndSplineSet
EndChar

StartChar: braceleft
Encoding: 123 123 90
Width: 369
VWidth: 0
Flags: HMW
LayerCount: 2
Fore
SplineSet
112.306640625 325 m 1
 130.306640625 325 l 1
 109.147460938 205 l 1
 91.1474609375 205 l 1
 112.306640625 325 l 1
163.44921875 150 m 5
 283.44921875 150 l 5
 255.236328125 -10 l 1
 128.18359375 -50 l 1
 163.44921875 150 l 5
239.26953125 580 m 1
 352.216796875 540 l 1
 324.00390625 380 l 1
 204.00390625 380 l 1
 239.26953125 580 l 1
204.00390625 380 m 1
 324.00390625 380 l 1
 306.547851562 281 220.555664062 230 101.555664062 230 c 5
 112.306640625 325 l 1
 180.306640625 325 196.951171875 340 204.00390625 380 c 1
163.44921875 150 m 1
 170.501953125 190 159.147460938 205 91.1474609375 205 c 1
 113.8984375 300 l 1
 232.8984375 300 300.905273438 249 283.44921875 150 c 1
 163.44921875 150 l 1
352.216796875 540 m 1
 239.26953125 580 l 1
 253.19921875 659 342.71875 730 461.71875 730 c 1
 447.44140625 615 l 1
 369.44140625 615 359.26953125 580 352.216796875 540 c 1
255.236328125 -10 m 1
 248.18359375 -50 246.01171875 -85 324.01171875 -85 c 1
 297.734375 -200 l 1
 178.734375 -200 114.25390625 -129 128.18359375 -50 c 1
 255.236328125 -10 l 1
EndSplineSet
EndChar

StartChar: bar
Encoding: 124 124 92
Width: 320
VWidth: 0
Flags: HMW
LayerCount: 2
Fore
SplineSet
342.53515625 780 m 5
 190.893554688 -80 l 5
 100.893554688 -80 l 1
 252.53515625 780 l 1
 342.53515625 780 l 5
EndSplineSet
EndChar

StartChar: asciitilde
Encoding: 126 126 93
Width: 470
VWidth: 0
Flags: HMW
LayerCount: 2
Fore
SplineSet
153.91796875 164 m 1
 79.20703125 194 l 1
 97.572265625 272.260742188 153.396484375 320.638671875 204.767578125 320.638671875 c 0
 268.381835938 320.638671875 302.674804688 256.962890625 346.916992188 256.962890625 c 0
 391.41796875 256.962890625 405.533203125 286.58984375 412.129882812 324 c 1
 476.83984375 294 l 1
 456.711914062 205.739257812 403.5 167.361328125 353.33203125 167.361328125 c 0
 291.7734375 167.361328125 260.569335938 231.037109375 217.985351562 231.037109375 c 4
 174.184570312 231.037109375 160.513671875 201.41015625 153.91796875 164 c 1
EndSplineSet
EndChar

StartChar: tilde
Encoding: 732 732 98
Width: 500
VWidth: 0
Flags: HMW
AnchorPoint: "dot" 357.56 610 basechar 0
LayerCount: 2
Fore
SplineSet
245.795898438 600 m 5
 158.322265625 620 l 1
 176.6875 698.260742188 243.51171875 746.638671875 294.8828125 746.638671875 c 0
 358.497070312 746.638671875 386.31640625 702.962890625 430.55859375 702.962890625 c 0
 465.059570312 702.962890625 495.6484375 712.58984375 500.482421875 740 c 1
 586.955078125 720 l 1
 566.827148438 631.739257812 493.615234375 593.361328125 443.447265625 593.361328125 c 0
 381.888671875 593.361328125 357.158203125 637.037109375 314.57421875 637.037109375 c 4
 280.7734375 637.037109375 250.62890625 627.41015625 245.795898438 600 c 5
EndSplineSet
EndChar

StartChar: dotaccent
Encoding: 729 729 99
Width: 500
VWidth: 0
Flags: HMW
AnchorPoint: "dot" 354.033 590 basechar 0
LayerCount: 2
Fore
SplineSet
281.43359375 666 m 0
 289.720703125 713 335.59765625 752 382.59765625 752 c 0
 429.59765625 752 461.720703125 713 453.43359375 666 c 0
 445.146484375 619 399.26953125 580 352.26953125 580 c 0
 305.26953125 580 273.146484375 619 281.43359375 666 c 0
EndSplineSet
EndChar

StartChar: ring
Encoding: 730 730 100
Width: 500
VWidth: 0
Flags: HMW
AnchorPoint: "ring" 354.033 590 basechar 0
LayerCount: 2
Fore
SplineSet
319.90234375 680 m 0
 314.7890625 651 332.0859375 630 361.0859375 630 c 0
 390.0859375 630 414.7890625 651 419.90234375 680 c 0
 425.015625 709 407.71875 730 378.71875 730 c 4
 349.71875 730 325.015625 709 319.90234375 680 c 0
269.90234375 680 m 0
 279.600585938 735 332.53515625 780 387.53515625 780 c 0
 442.53515625 780 479.600585938 735 469.90234375 680 c 0
 460.204101562 625 407.26953125 580 352.26953125 580 c 0
 297.26953125 580 260.204101562 625 269.90234375 680 c 0
EndSplineSet
EndChar

StartChar: breve
Encoding: 728 728 101
Width: 500
VWidth: 0
Flags: HMW
AnchorPoint: "dot" 342.566 559 basechar 0
LayerCount: 2
Fore
SplineSet
363.725585938 679 m 1
 323.725585938 679 301.194335938 693 309.658203125 741 c 1
 193.600585938 735 l 1
 176.143554688 636 233.56640625 559 342.56640625 559 c 1
 363.725585938 679 l 1
363.725585938 679 m 5
 342.56640625 559 l 1
 451.56640625 559 536.143554688 636 553.600585938 735 c 1
 439.658203125 741 l 5
 431.194335938 693 405.725585938 679 363.725585938 679 c 5
EndSplineSet
EndChar

StartChar: circumflex
Encoding: 710 710 102
Width: 500
VWidth: 0
Flags: HMW
AnchorPoint: "dot" 361.086 630 basechar 0
LayerCount: 2
Fore
SplineSet
426.0859375 630 m 1
 343.71875 730 l 1
 433.71875 730 l 1
 516.0859375 630 l 1
 426.0859375 630 l 1
323.71875 730 m 5
 413.71875 730 l 1
 296.0859375 630 l 1
 206.0859375 630 l 5
 323.71875 730 l 5
EndSplineSet
EndChar

StartChar: caron
Encoding: 711 711 103
Width: 500
VWidth: 0
Flags: HMW
AnchorPoint: "dot" 361.086 630 basechar 0
LayerCount: 2
Fore
SplineSet
313.71875 730 m 1
 396.0859375 630 l 1
 306.0859375 630 l 5
 223.71875 730 l 5
 313.71875 730 l 1
416.0859375 630 m 1
 326.0859375 630 l 1
 443.71875 730 l 1
 533.71875 730 l 1
 416.0859375 630 l 1
EndSplineSet
EndChar

StartChar: cent
Encoding: 162 162 105
Width: 600
VWidth: 0
Flags: HMW
LayerCount: 2
Fore
SplineSet
415 600 m 5
 475 600 l 5
 355 -80 l 1
 295 -80 l 1
 415 600 l 5
EndSplineSet
Refer: 30 99 N 1 0 0 1 10 0 2
EndChar

StartChar: sterling
Encoding: 163 163 108
Width: 600
VWidth: 0
Flags: HMW
LayerCount: 2
Fore
SplineSet
206.750976562 95 m 1
 56.8232421875 -1 l 1
 275.056640625 272.541992188 124.181640625 278.921875 168.453125 530 c 1
 321.400390625 490 l 1
 288.975585938 306.112304688 387.561523438 269.735351562 206.750976562 95 c 1
140.591796875 -25 m 1
 56.8232421875 -1 l 1
 145.188476562 77.2607421875 231.833984375 141.638671875 303.205078125 141.638671875 c 4
 366.819335938 141.638671875 373.165039062 117.962890625 417.407226562 117.962890625 c 0
 461.908203125 117.962890625 472.673828125 128.58984375 499.270507812 166 c 1
 567.342773438 70 l 1
 527.21484375 -18.2607421875 458.41015625 -31.638671875 408.2421875 -31.638671875 c 0
 326.68359375 -31.638671875 275.190429688 2.037109375 232.606445312 2.037109375 c 0
 188.805664062 2.037109375 164.014648438 -5.58984375 140.591796875 -25 c 1
115.53125 400 m 1
 413.53125 400 l 1
 386.200195312 245 l 1
 88.2001953125 245 l 1
 115.53125 400 l 1
402.861328125 555 m 1
 424.192382812 710 l 1
 506.192382812 710 567.962890625 669 594.559570312 610 c 1
 498.634765625 497 l 1
 478.51171875 536 446.861328125 555 402.861328125 555 c 1
321.400390625 490 m 1
 168.453125 530 l 1
 187.672851562 639 281.192382812 710 424.192382812 710 c 1
 402.861328125 555 l 1
 347.861328125 555 328.27734375 529 321.400390625 490 c 1
EndSplineSet
EndChar

StartChar: currency
Encoding: 164 164 109
Width: 600
VWidth: 0
Flags: HMW
LayerCount: 2
Fore
SplineSet
284.54296875 315 m 0
 277.137695312 273 300.142578125 239 342.142578125 239 c 0
 384.142578125 239 419.137695312 273 426.54296875 315 c 0
 433.94921875 357 410.944335938 391 368.944335938 391 c 0
 326.944335938 391 291.94921875 357 284.54296875 315 c 0
151.615234375 219 m 5
 226.5703125 128 l 1
 113.642578125 32 l 1
 38.6884765625 123 l 5
 151.615234375 219 l 5
414.451171875 133 m 1
 520.497070312 224 l 1
 603.688476562 123 l 1
 497.642578125 32 l 1
 414.451171875 133 l 1
597.443359375 598 m 1
 672.397460938 507 l 1
 539.47265625 394 l 1
 464.518554688 485 l 1
 597.443359375 598 l 1
106.397460938 507 m 1
 213.443359375 598 l 1
 306.518554688 485 l 1
 199.47265625 394 l 1
 106.397460938 507 l 1
139.54296875 315 m 0
 160.526367188 434 274.629882812 531 393.629882812 531 c 0
 512.629882812 531 592.526367188 434 571.54296875 315 c 0
 550.560546875 196 436.456054688 99 317.456054688 99 c 0
 198.456054688 99 118.560546875 196 139.54296875 315 c 0
EndSplineSet
EndChar

StartChar: brokenbar
Encoding: 166 166 111
Width: 300
VWidth: 0
Flags: HMW
LayerCount: 2
Fore
SplineSet
266.110351562 460 m 5
 196.110351562 460 l 5
 252.53515625 780 l 1
 322.53515625 780 l 1
 266.110351562 460 l 5
234.37109375 280 m 1
 170.893554688 -80 l 1
 100.893554688 -80 l 1
 164.37109375 280 l 1
 234.37109375 280 l 1
EndSplineSet
EndChar

StartChar: section
Encoding: 167 167 112
Width: 520
VWidth: 0
Flags: HMW
LayerCount: 2
Fore
SplineSet
376.801757812 152 m 1
 514.157226562 137 l 5
 497.229492188 41 382.236328125 -10 273.236328125 -10 c 0
 164.236328125 -10 82.81640625 50 48.2216796875 92 c 1
 146.03125 193 l 1
 178.211914062 160 249.041015625 125 297.041015625 125 c 0
 335.041015625 125 373.803710938 135 376.801757812 152 c 1
243.854492188 192 m 4
 128.018554688 203.899414062 47.8984375 300 214.346679688 450 c 1
 294.346679688 450 l 1
 178.477539062 360 247.51953125 318.23828125 353.426757812 303 c 0
 454.344726562 288.479492188 530.908203125 232 514.157226562 137 c 5
 376.801757812 152 l 1
 380.328125 172 349.658203125 181.130859375 243.854492188 192 c 4
316.626953125 548 m 1
 179.272460938 563 l 1
 196.19921875 659 291.192382812 710 400.192382812 710 c 0
 509.192382812 710 554.138671875 670 588.733398438 628 c 1
 490.924804688 527 l 1
 458.743164062 560 424.387695312 575 376.387695312 575 c 0
 338.387695312 575 319.625 565 316.626953125 548 c 1
429.57421875 508 m 0
 545.384765625 496.008789062 625.53125 400 459.08203125 250 c 1
 379.08203125 250 l 1
 494.951171875 340 425.909179688 381.76171875 320.001953125 397 c 0
 219.084960938 411.520507812 162.521484375 468 179.272460938 563 c 1
 316.626953125 548 l 1
 313.100585938 528 372.889648438 513.869140625 429.57421875 508 c 0
EndSplineSet
EndChar

StartChar: copyright
Encoding: 169 169 114
Width: 850
VWidth: 0
Flags: HMW
LayerCount: 2
Fore
SplineSet
113 350 m 0
 113 174 254 30 425 30 c 0
 596 30 737 174 737 350 c 0
 737 526 596 670 425 670 c 0
 254 670 113 526 113 350 c 0
70 350 m 0
 70 549 230 710 425 710 c 0
 620 710 780 549 780 350 c 0
 780 151 620 -10 425 -10 c 0
 230 -10 70 151 70 350 c 0
EndSplineSet
Refer: 8 67 N 0.5 0 0 0.5 220.5 175 2
EndChar

StartChar: registered
Encoding: 174 174 116
Width: 850
VWidth: 0
Flags: HMW
LayerCount: 2
Fore
SplineSet
113 350 m 0
 113 174 254 30 425 30 c 0
 596 30 737 174 737 350 c 0
 737 526 596 670 425 670 c 0
 254 670 113 526 113 350 c 0
70 350 m 0
 70 549 230 710 425 710 c 0
 620 710 780 549 780 350 c 0
 780 151 620 -10 425 -10 c 0
 230 -10 70 151 70 350 c 0
EndSplineSet
Refer: 17 82 S 0.5 0 0 0.5 252 175 2
EndChar

StartChar: degree
Encoding: 176 176 119
Width: 400
VWidth: 0
Flags: HMW
LayerCount: 2
Fore
SplineSet
249.90234375 680 m 0
 243.025390625 641 268.559570312 610 307.559570312 610 c 0
 346.559570312 610 383.025390625 641 389.90234375 680 c 0
 396.779296875 719 371.245117188 750 332.245117188 750 c 0
 293.245117188 750 256.779296875 719 249.90234375 680 c 0
219.90234375 680 m 0
 229.600585938 735 282.53515625 780 337.53515625 780 c 0
 392.53515625 780 429.600585938 735 419.90234375 680 c 0
 410.204101562 625 357.26953125 580 302.26953125 580 c 0
 247.26953125 580 210.204101562 625 219.90234375 680 c 0
EndSplineSet
EndChar

StartChar: mu
Encoding: 181 181 120
Width: 635
VWidth: 0
Flags: HMW
LayerCount: 2
Fore
SplineSet
110 220 m 1
 275 220 l 1
 195 -198 l 5
 30 -198 l 5
 110 220 l 1
EndSplineSet
Refer: 40 117 N 1 0 0 1 0 0 2
EndChar

StartChar: grave
Encoding: 96 96 123
Width: 320
VWidth: 0
Flags: HMW
AnchorPoint: "dot" 304.033 590 basechar 0
LayerCount: 2
Fore
SplineSet
254.033203125 590 m 5
 158.71875 730 l 5
 338.71875 730 l 1
 394.033203125 590 l 1
 254.033203125 590 l 5
EndSplineSet
EndChar

StartChar: acute
Encoding: 180 180 124
Width: 320
VWidth: 0
Flags: HMW
AnchorPoint: "dot" 224.033 590 basechar 0
LayerCount: 2
Fore
SplineSet
264.033203125 590 m 1
 144.033203125 590 l 5
 248.71875 730 l 5
 408.71875 730 l 1
 264.033203125 590 l 1
EndSplineSet
EndChar

StartChar: logicalnot
Encoding: 172 172 126
Width: 540
VWidth: 0
Flags: HMW
LayerCount: 2
Fore
SplineSet
488.754882812 475 m 5
 558.754882812 475 l 5
 523.490234375 275 l 1
 453.490234375 275 l 1
 488.754882812 475 l 5
EndSplineSet
Refer: 78 45 N 1.13333 0 0.176327 1 8.96603 100 2
EndChar

StartChar: macron
Encoding: 175 175 127
Width: 300
VWidth: 0
Flags: HMW
LayerCount: 2
Fore
SplineSet
139.061523438 800 m 1
 443.061523438 800 l 5
 428.955078125 720 l 5
 124.955078125 720 l 1
 139.061523438 800 l 1
EndSplineSet
EndChar

StartChar: paragraph
Encoding: 182 182 130
Width: 600
VWidth: 0
Flags: HMW
LayerCount: 2
Fore
SplineSet
568.428710938 700 m 1
 560.670898438 656 l 1
 468.670898438 656 l 1
 476.428710938 700 l 1
 568.428710938 700 l 1
648.428710938 700 m 1
 525 0 l 1
 445 0 l 1
 568.428710938 700 l 1
 648.428710938 700 l 1
498.428710938 700 m 1
 375 0 l 1
 295 0 l 1
 418.428710938 700 l 1
 498.428710938 700 l 1
340.844726562 260 m 1
 241.844726562 260 136.890625 351 159.63671875 480 c 0
 182.3828125 609 319.428710938 700 418.428710938 700 c 1
 386.690429688 520 372.583984375 440 340.844726562 260 c 1
EndSplineSet
EndChar

StartChar: cedilla
Encoding: 184 184 131
Width: 320
VWidth: 0
Flags: HMW
AnchorPoint: "ced" 145.823 -1 basechar 0
LayerCount: 2
Fore
SplineSet
89.2900390625 30 m 1
 129.290039062 30 l 1
 173.294921875 -4 241.241210938 -44 229.250976562 -112 c 0
 219.201171875 -169 191.029296875 -204 114.029296875 -204 c 4
 67.029296875 -204 43.2607421875 -180 24.90625 -165 c 1
 59.2490234375 -95 l 1
 72.95703125 -108 91.8408203125 -120 111.840820312 -120 c 0
 137.840820312 -120 148.780273438 -109 152.306640625 -89 c 0
 156.71484375 -64 129.413085938 -9 89.2900390625 30 c 1
EndSplineSet
EndChar

StartChar: dotlessi
Encoding: 305 305 225
Width: 270
VWidth: 0
Flags: HMW
AnchorPoint: "ced" 135 0 basechar 0
LayerCount: 2
Fore
SplineSet
146.690429688 520 m 5
 306.690429688 520 l 1
 215 0 l 1
 55 0 l 5
 146.690429688 520 l 5
EndSplineSet
EndChar

StartChar: uni0237
Encoding: 567 567 349
Width: 270
VWidth: 0
Flags: HMW
LayerCount: 2
Fore
SplineSet
140.690429688 520 m 1
 305.690429688 520 l 1
 203.419921875 -60 l 1
 43.7099609375 -30 l 1
 140.690429688 520 l 1
0.5390625 -65 m 1
 4.9716796875 -210 l 1
 -52.0283203125 -210 -118.854492188 -192 -139.859375 -158 c 1
 -48.5244140625 -37 l 1
 -34.8740234375 -56 -21.4609375 -65 0.5390625 -65 c 1
43.7099609375 -30 m 1
 203.419921875 -60 l 1
 182.4375 -179 93.9716796875 -210 4.9716796875 -210 c 1
 0.5390625 -65 l 1
 27.5390625 -65 38.94921875 -57 43.7099609375 -30 c 1
EndSplineSet
EndChar

StartChar: kgreenlandic
Encoding: 312 312 573
Width: 590
VWidth: 0
Flags: HMW
AnchorPoint: "dot" 325 673 basechar 0
AnchorPoint: "ced" 515 0 basechar 0
LayerCount: 2
Fore
SplineSet
245 291 m 1
 345 305 l 5
 565 0 l 5
 455 0 l 1
 245 291 l 1
430 520 m 1
 545 520 l 5
 185 110 l 5
 110 154 l 1
 430 520 l 1
85 520 m 1
 185 520 l 5
 185 0 l 5
 85 0 l 1
 85 520 l 1
EndSplineSet
EndChar

StartChar: ogonek
Encoding: 731 731 574
Width: 320
VWidth: 0
Flags: HMW
AnchorPoint: "ced" 149 0 basechar 0
LayerCount: 2
Fore
SplineSet
214.290039062 30 m 1
 160.413085938 -9 103.71484375 -64 99.306640625 -89 c 0
 95.427734375 -111 107.840820312 -120 138.840820312 -120 c 0
 168.840820312 -120 179.075195312 -113 199.3671875 -100 c 5
 209.90625 -165 l 1
 186.260742188 -180 154.029296875 -204 107.029296875 -204 c 0
 40.029296875 -204 4.201171875 -169 14.2509765625 -112 c 0
 24.478515625 -54 118.294921875 -4 174.290039062 30 c 1
 214.290039062 30 l 1
EndSplineSet
EndChar

StartChar: AE
Encoding: 198 198 582
Width: 1090
VWidth: 0
Flags: HMW
LayerCount: 2
Fore
SplineSet
440 700 m 1
 565 700 l 1
 560 550 l 1
 440 550 l 1
 440 700 l 1
204 260 m 1
 596 260 l 1
 596 115 l 5
 204 115 l 5
 204 260 l 1
440 700 m 1
 595 690 l 1
 205 0 l 1
 40 0 l 1
 440 700 l 1
EndSplineSet
Refer: 0 69 N 1 0 0 1 430 0 2
EndChar

StartChar: fi
Encoding: 64257 64257 585
Width: 405
VWidth: 0
Flags: HMW
AnchorPoint: "ced" 175 0 basechar 0
LayerCount: 2
Fore
SplineSet
136.690429688 520 m 1
 469.690429688 520 l 1
 449.412109375 405 l 1
 116.412109375 405 l 1
 136.690429688 520 l 1
340.506835938 570 m 1
 240 0 l 1
 115 0 l 1
 219.033203125 590 l 1
 340.506835938 570 l 1
340.506835938 570 m 1
 219.033203125 590 l 1
 232.962890625 669 323.482421875 740 412.482421875 740 c 1
 408.204101562 625 l 1
 373.204101562 625 345.620117188 599 340.506835938 570 c 1
408.204101562 625 m 1
 412.482421875 740 l 1
 440.296875 740 473.91015625 735.572265625 491.599609375 717.98046875 c 1
 472.030273438 607 l 5
 461.44140625 615 437.204101562 625 408.204101562 625 c 1
EndSplineSet
EndChar
